<svg width="512" height="512" viewBox="0 0 512 512" fill="none" xmlns="http://www.w3.org/2000/svg">
<rect width="512" height="512" rx="100" fill="#CA3D3D"/>
<path d="M232.118 193.248C232.118 193.248 248.898 208.528 280.714 198.681C283.386 197.854 334.566 174.992 373.888 157.371C395.074 147.878 419 163.382 419 186.598V361.713C419 361.713 419 375.645 404.86 383.131C404.86 383.131 298.182 431.168 280.714 436.99C263.246 442.813 238.5 441.357 224.152 434.495C209.803 427.633 204.397 419.315 203.773 410.165L203.357 203.464C203.357 197.017 203.357 178.718 222.28 172.479C225.402 171.17 294.306 141.871 333.345 125.269C345.863 119.945 359.735 129.139 359.735 142.742V142.742" stroke="white" stroke-width="18" stroke-miterlimit="4.62023" stroke-linecap="round" stroke-linejoin="round"/>
<path d="M154.761 150.203C154.761 150.203 171.541 165.483 203.357 155.635C206.636 154.62 282.958 120.426 320.782 103.451C330.575 99.0555 341.643 106.222 341.643 116.957V116.957M203.357 393.945C185.889 399.767 161.143 398.312 146.795 391.449C132.446 384.587 127.04 376.269 126.416 367.119L126 160.418C126 153.972 126 135.672 144.923 129.434C148.045 128.125 216.949 98.8252 255.988 82.2233C268.506 76.8997 282.378 86.0938 282.378 99.697V99.697" stroke="white" stroke-width="18" stroke-miterlimit="4.62023" stroke-linecap="round" stroke-linejoin="round"/>
</svg>
